<svg width="512" height="512" viewBox="0 0 512 512" fill="none" xmlns="http://www.w3.org/2000/svg">
<circle cx="345.5" cy="307.5" r="102.5" fill="#C02323"/>
<circle cx="167.5" cy="409.5" r="102.5" fill="#0B1144"/>
<circle cx="345.5" cy="102.5" r="102.5" fill="#4EA938"/>
<circle cx="167.5" cy="204.5" r="102.5" fill="#DEC158"/>
<path d="M176.773 170.182V240H168.318V179.045H167.909L150.864 190.364V181.773L168.318 170.182H176.773Z" fill="black" fill-opacity="0.65"/>
<path d="M323.227 138V131.864L346.273 106.636C348.977 103.682 351.205 101.114 352.955 98.9318C354.705 96.7273 356 94.6591 356.841 92.7273C357.705 90.7727 358.136 88.7273 358.136 86.5909C358.136 84.1364 357.545 82.0114 356.364 80.2159C355.205 78.4205 353.614 77.0341 351.591 76.0568C349.568 75.0795 347.295 74.5909 344.773 74.5909C342.091 74.5909 339.75 75.1477 337.75 76.2614C335.773 77.3523 334.239 78.8864 333.148 80.8636C332.08 82.8409 331.545 85.1591 331.545 87.8182H323.5C323.5 83.7273 324.443 80.1364 326.33 77.0455C328.216 73.9545 330.784 71.5455 334.034 69.8182C337.307 68.0909 340.977 67.2273 345.045 67.2273C349.136 67.2273 352.761 68.0909 355.92 69.8182C359.08 71.5455 361.557 73.875 363.352 76.8068C365.148 79.7386 366.045 83 366.045 86.5909C366.045 89.1591 365.58 91.6705 364.648 94.125C363.739 96.5568 362.148 99.2727 359.875 102.273C357.625 105.25 354.5 108.886 350.5 113.182L334.818 129.955V130.5H367.273V138H323.227Z" fill="black" fill-opacity="0.65"/>
<path d="M166.818 445.955C162.318 445.955 158.307 445.182 154.784 443.636C151.284 442.091 148.5 439.943 146.432 437.193C144.386 434.42 143.273 431.205 143.091 427.545H151.682C151.864 429.795 152.636 431.739 154 433.375C155.364 434.989 157.148 436.239 159.352 437.125C161.557 438.011 164 438.455 166.682 438.455C169.682 438.455 172.341 437.932 174.659 436.886C176.977 435.841 178.795 434.386 180.114 432.523C181.432 430.659 182.091 428.5 182.091 426.045C182.091 423.477 181.455 421.216 180.182 419.261C178.909 417.284 177.045 415.739 174.591 414.625C172.136 413.511 169.136 412.955 165.591 412.955H160V405.455H165.591C168.364 405.455 170.795 404.955 172.886 403.955C175 402.955 176.648 401.545 177.83 399.727C179.034 397.909 179.636 395.773 179.636 393.318C179.636 390.955 179.114 388.898 178.068 387.148C177.023 385.398 175.545 384.034 173.636 383.057C171.75 382.08 169.523 381.591 166.955 381.591C164.545 381.591 162.273 382.034 160.136 382.92C158.023 383.784 156.295 385.045 154.955 386.705C153.614 388.341 152.886 390.318 152.773 392.636H144.591C144.727 388.977 145.83 385.773 147.898 383.023C149.966 380.25 152.67 378.091 156.011 376.545C159.375 375 163.068 374.227 167.091 374.227C171.409 374.227 175.114 375.102 178.205 376.852C181.295 378.58 183.67 380.864 185.33 383.705C186.989 386.545 187.818 389.614 187.818 392.909C187.818 396.841 186.784 400.193 184.716 402.966C182.67 405.739 179.886 407.659 176.364 408.727V409.273C180.773 410 184.216 411.875 186.693 414.898C189.17 417.898 190.409 421.614 190.409 426.045C190.409 429.841 189.375 433.25 187.307 436.273C185.261 439.273 182.466 441.636 178.92 443.364C175.375 445.091 171.341 445.955 166.818 445.955Z" fill="black" fill-opacity="0.65"/>
<path d="M319.591 327.682V320.727L350.273 272.182H355.318V282.955H351.909L328.727 319.636V320.182H370.045V327.682H319.591ZM352.455 342V325.568V322.33V272.182H360.5V342H352.455Z" fill="black" fill-opacity="0.65"/>
</svg>
