<svg width="512" height="512" viewBox="0 0 512 512" fill="none" xmlns="http://www.w3.org/2000/svg">
<g clip-path="url(#clip0_1_199)">
<circle cx="409.5" cy="256.5" r="102.5" fill="#D9D9D9"/>
<circle cx="256.5" cy="409.5" r="102.5" fill="#D9D9D9"/>
<circle cx="256.5" cy="102.5" r="102.5" fill="#DEC158"/>
<circle cx="102.5" cy="256.5" r="102.5" fill="#0B1144"/>
<path d="M234.318 445H225.455L251.091 375.182H259.818L285.455 445H276.591L255.727 386.227H255.182L234.318 445ZM237.591 417.727H273.318V425.227H237.591V417.727Z" fill="black" fill-opacity="0.65"/>
<path d="M386.455 292V222.182H410.864C415.727 222.182 419.739 223.023 422.898 224.705C426.057 226.364 428.409 228.602 429.955 231.42C431.5 234.216 432.273 237.318 432.273 240.727C432.273 243.727 431.739 246.205 430.67 248.159C429.625 250.114 428.239 251.659 426.511 252.795C424.807 253.932 422.955 254.773 420.955 255.318V256C423.091 256.136 425.239 256.886 427.398 258.25C429.557 259.614 431.364 261.568 432.818 264.114C434.273 266.659 435 269.773 435 273.455C435 276.955 434.205 280.102 432.614 282.898C431.023 285.693 428.511 287.909 425.08 289.545C421.648 291.182 417.182 292 411.682 292H386.455ZM394.909 284.5H411.682C417.205 284.5 421.125 283.432 423.443 281.295C425.784 279.136 426.955 276.523 426.955 273.455C426.955 271.091 426.352 268.909 425.148 266.909C423.943 264.886 422.227 263.273 420 262.068C417.773 260.841 415.136 260.227 412.091 260.227H394.909V284.5ZM394.909 252.864H410.591C413.136 252.864 415.432 252.364 417.477 251.364C419.545 250.364 421.182 248.955 422.386 247.136C423.614 245.318 424.227 243.182 424.227 240.727C424.227 237.659 423.159 235.057 421.023 232.92C418.886 230.761 415.5 229.682 410.864 229.682H394.909V252.864Z" fill="black" fill-opacity="0.65"/>
<path d="M84.5455 221.182L102.545 250.227H103.091L121.091 221.182H131.045L109.091 256.091L131.045 291H121.091L103.091 262.5H102.545L84.5455 291H74.5909L97.0909 256.091L74.5909 221.182H84.5455Z" fill="black" fill-opacity="0.65"/>
<path d="M227.455 68.1818H237.136L256.5 100.773H257.318L276.682 68.1818H286.364L261.136 109.227V138H252.682V109.227L227.455 68.1818Z" fill="black" fill-opacity="0.65"/>
</g>
<defs>
<clipPath id="clip0_1_199">
<rect width="512" height="512" fill="white"/>
</clipPath>
</defs>
</svg>
