<svg width="512" height="512" viewBox="0 0 512 512" fill="none" xmlns="http://www.w3.org/2000/svg">
<path d="M255.5 55L300.74 194.233H447.138L328.699 280.284L373.939 419.517L255.5 333.466L137.061 419.517L182.301 280.284L63.8621 194.233H210.26L255.5 55Z" fill="#D9D9D9"/>
<path d="M255.5 87L293.555 204.122L416.704 204.122L317.074 276.507L355.13 393.628L255.5 321.243L155.87 393.628L193.926 276.507L94.2959 204.122L217.445 204.122L255.5 87Z" fill="black"/>
<path d="M255.5 87L293.555 204.122L416.704 204.122L317.074 276.507L355.13 393.628L255.5 321.243L155.87 393.628L193.926 276.507L94.2959 204.122L217.445 204.122L255.5 87Z" fill="black"/>
<path d="M255.5 126L284.799 216.173H379.613L302.907 271.903L332.206 362.077L255.5 306.347L178.794 362.077L208.093 271.903L131.387 216.173H226.201L255.5 126Z" fill="#D9D9D9"/>
</svg>
