<?xml version="1.0" encoding="utf-8"?>
<!-- Generator: Adobe Illustrator 19.2.1, SVG Export Plug-In . SVG Version: 6.00 Build 0)  -->
<svg version="1.1" id="Calque_1" xmlns="http://www.w3.org/2000/svg" xmlns:xlink="http://www.w3.org/1999/xlink" x="0px" y="0px"
	 viewBox="0 0 72 72" style="enable-background:new 0 0 72 72;" xml:space="preserve">
<style type="text/css">
	.st0{fill:url(#XMLID_44_);}
	.st1{display:none;}
	.st2{display:inline;}
	.st3{fill:#333333;}
	.st4{display:inline;fill:none;stroke:#FF66FA;}
	.st5{display:inline;fill:#427DB8;}
	.st6{opacity:0.33;fill:#FFFFFF;}
	.st7{fill:#E8E8E8;}
	.st8{opacity:0.33;fill:#696969;}
	.st9{opacity:0;fill:#696969;}
	.st10{fill:url(#XMLID_61_);}
	.st11{display:none;opacity:0.4;}
	.st12{font-family:'HelveticaNeueLTStd-Bd';}
	.st13{font-size:10.6131px;}
	.st14{fill:url(#XMLID_62_);}
</style>
<symbol  id="Nouveau_symbole_2_" viewBox="-17.5 -17.5 35 35">
	<path id="XMLID_215_" d="M0,15.7c8.7,0,15.7-7.1,15.7-15.7S8.7-15.7,0-15.7S-15.7-8.7-15.7,0S-8.7,15.7,0,15.7 M0,17.5
		c-9.6,0-17.5-7.9-17.5-17.5S-9.6-17.5,0-17.5c9.6,0,17.5,7.9,17.5,17.5S9.6,17.5,0,17.5L0,17.5z"/>
	<radialGradient id="XMLID_44_" cx="-7.5" cy="9.3747" r="34.1245" gradientUnits="userSpaceOnUse">
		<stop  offset="0" style="stop-color:#DB2727"/>
		<stop  offset="1" style="stop-color:#A81E1E"/>
	</radialGradient>
	<path id="XMLID_214_" class="st0" d="M0,15.7c-8.7,0-15.7-7.1-15.7-15.7S-8.7-15.7,0-15.7S15.7-8.7,15.7,0S8.7,15.7,0,15.7z"/>
	<g id="Calque_3_2_" class="st1">
		<g id="XMLID_211_" class="st2">
			<circle id="XMLID_23_" class="st3" cx="0" cy="0" r="7.5"/>
		</g>
		<rect id="XMLID_209_" x="-4" y="-4" class="st4" width="8" height="8"/>
	</g>
	<g id="XMLID_187_" class="st1">
		<circle id="XMLID_21_" class="st5" cx="0" cy="0" r="7.5"/>
	</g>
	<text id="XMLID_182_" transform="matrix(1 0 0 -1 -3.4258 -4.3335)" class="st11 st12" style="font-size:12px;">X</text>
	<path id="XMLID_181_" class="st6" d="M-14.6-2.2c0,9.1,7.4,16.5,16.5,16.5c2.2,0,4.4-0.5,6.4-1.3c-2.3,1.4-5,2.2-7.9,2.2
		c-8.5,0-15.5-7-15.5-15.5c0-1.7,0.3-3.4,0.8-5C-14.5-4.3-14.6-3.3-14.6-2.2z"/>
</symbol>
<symbol  id="Nouveau_symbole_3_2_" viewBox="-17.5 -17.5 35 35">
	<path id="XMLID_163_" d="M0-15.7c-8.7,0-15.7,7.1-15.7,15.7S-8.7,15.7,0,15.7S15.7,8.7,15.7,0S8.7-15.7,0-15.7 M0-17.5
		c9.6,0,17.5,7.9,17.5,17.5S9.6,17.5,0,17.5c-9.6,0-17.5-7.9-17.5-17.5S-9.6-17.5,0-17.5L0-17.5z"/>
	<path id="XMLID_162_" class="st7" d="M0-15.7c8.7,0,15.7,7.1,15.7,15.7S8.7,15.7,0,15.7S-15.7,8.7-15.7,0S-8.7-15.7,0-15.7z"/>
	<g id="Calque_3_4_" class="st1">
		<g id="XMLID_159_" class="st2">
			<circle id="XMLID_19_" class="st3" cx="0" cy="0" r="7.5"/>
		</g>
		<rect id="XMLID_155_" x="-4" y="-4" class="st4" width="8" height="8"/>
	</g>
	<g id="XMLID_97_" class="st1">
		<circle id="XMLID_17_" class="st5" cx="0" cy="0" r="7.5"/>
	</g>
	<text id="XMLID_49_" transform="matrix(1 0 0 -1 -3.4258 -4.3335)" class="st11 st12" style="font-size:12px;">X</text>
	<path id="XMLID_46_" class="st8" d="M14.6,2.2c0-9.1-7.4-16.5-16.5-16.5c-2.2,0-4.4,0.5-6.4,1.3c2.3-1.4,5-2.2,7.9-2.2
		c8.5,0,15.5,7,15.5,15.5c0,1.7-0.3,3.4-0.8,5C14.5,4.3,14.6,3.3,14.6,2.2z"/>
</symbol>
<rect id="XMLID_120_" x="0" y="0" class="st9" width="72" height="72"/>
<g id="Nouveau_symbole">
	<path id="XMLID_22_" d="M21.8,11c7.7,0,13.9,6.2,13.9,13.9s-6.2,13.9-13.9,13.9S7.9,32.6,7.9,24.9S14.1,11,21.8,11 M21.8,9.5
		c-8.5,0-15.5,6.9-15.5,15.5s6.9,15.5,15.5,15.5c8.5,0,15.5-6.9,15.5-15.5S30.3,9.5,21.8,9.5L21.8,9.5z"/>
	<radialGradient id="XMLID_61_" cx="15.1195" cy="16.6537" r="30.1805" gradientUnits="userSpaceOnUse">
		<stop  offset="0" style="stop-color:#DB2727"/>
		<stop  offset="1" style="stop-color:#A81E1E"/>
	</radialGradient>
	<path id="XMLID_20_" class="st10" d="M21.8,11c-7.7,0-13.9,6.2-13.9,13.9s6.2,13.9,13.9,13.9s13.9-6.2,13.9-13.9S29.4,11,21.8,11z"
		/>
	<g id="Calque_3_1_" class="st1">
		<g id="XMLID_7_" class="st2">
			<circle id="XMLID_8_" class="st3" cx="21.8" cy="24.9" r="6.7"/>
		</g>
		<rect id="XMLID_14_" x="18.2" y="21.4" class="st4" width="7.1" height="7.1"/>
	</g>
	<g id="XMLID_26_" class="st1">
		<circle id="XMLID_27_" class="st5" cx="21.8" cy="24.9" r="6.7"/>
	</g>
	<text id="XMLID_6_" transform="matrix(1 0 0 1 18.7226 28.778)" class="st11 st12 st13">X</text>
	<path id="XMLID_3_" class="st6" d="M8.8,26.9c0-8,6.5-14.6,14.6-14.6c2,0,3.9,0.4,5.6,1.1c-2-1.2-4.4-1.9-7-1.9
		c-7.6,0-13.7,6.1-13.7,13.7c0,1.5,0.3,3,0.7,4.4C8.9,28.8,8.8,27.8,8.8,26.9z"/>
</g>
<g id="Nouveau_symbole_3">
	<path id="XMLID_34_" d="M51.1,30c-7.7,0-13.9-6.2-13.9-13.9S43.5,2.2,51.1,2.2S65,8.4,65,16.1S58.8,30,51.1,30 M51.1,31.6
		c8.5,0,15.5-6.9,15.5-15.5S59.7,0.6,51.1,0.6c-8.5,0-15.5,6.9-15.5,15.5S42.6,31.6,51.1,31.6L51.1,31.6z"/>
	<path id="XMLID_33_" class="st7" d="M51.1,30C58.8,30,65,23.8,65,16.1S58.8,2.2,51.1,2.2S37.2,8.4,37.2,16.1S43.5,30,51.1,30z"/>
	<g id="Calque_3_3_" class="st1">
		<g id="XMLID_16_" class="st2">
			<circle id="XMLID_18_" class="st3" cx="51.1" cy="16.1" r="6.7"/>
		</g>
		<rect id="XMLID_29_" x="47.6" y="12.6" class="st4" width="7.1" height="7.1"/>
	</g>
	<g id="XMLID_37_" class="st1">
		<circle id="XMLID_39_" class="st5" cx="51.1" cy="16.1" r="6.7"/>
	</g>
	<text id="XMLID_15_" transform="matrix(1 0 0 1 48.1016 19.9337)" class="st11 st12 st13">X</text>
	<path id="XMLID_9_" class="st8" d="M64.1,14.2c0,8-6.5,14.6-14.6,14.6c-2,0-3.9-0.4-5.6-1.1c2,1.2,4.4,1.9,7,1.9
		c7.6,0,13.7-6.1,13.7-13.7c0-1.5-0.3-3-0.7-4.4C64,12.3,64.1,13.2,64.1,14.2z"/>
</g>
<g id="Nouveau_symbole_3_1_">
	<path id="XMLID_65_" d="M20.9,69.8C13.2,69.8,7,63.6,7,55.9S13.2,42,20.9,42s13.9,6.2,13.9,13.9S28.5,69.8,20.9,69.8 M20.9,71.4
		c8.5,0,15.5-6.9,15.5-15.5s-6.9-15.5-15.5-15.5c-8.5,0-15.5,6.9-15.5,15.5S12.3,71.4,20.9,71.4L20.9,71.4z"/>
	<path id="XMLID_64_" class="st7" d="M20.9,69.8c7.7,0,13.9-6.2,13.9-13.9S28.5,42,20.9,42S7,48.2,7,55.9S13.2,69.8,20.9,69.8z"/>
	<g id="Calque_3_6_" class="st1">
		<g id="XMLID_42_" class="st2">
			<circle id="XMLID_43_" class="st3" cx="20.9" cy="55.9" r="6.7"/>
		</g>
		<rect id="XMLID_54_" x="17.3" y="52.4" class="st4" width="7.1" height="7.1"/>
	</g>
	<g id="XMLID_68_" class="st1">
		<circle id="XMLID_69_" class="st5" cx="20.9" cy="55.9" r="6.7"/>
	</g>
	<text id="XMLID_40_" transform="matrix(1 0 0 1 17.8389 59.7325)" class="st11 st12 st13">X</text>
	<path id="XMLID_2_" class="st8" d="M33.8,54c0,8-6.5,14.6-14.6,14.6c-2,0-3.9-0.4-5.6-1.1c2,1.2,4.4,1.9,7,1.9
		c7.6,0,13.7-6.1,13.7-13.7c0-1.5-0.3-3-0.7-4.4C33.7,52.1,33.8,53,33.8,54z"/>
</g>
<g id="Nouveau_symbole_1_">
	<path id="XMLID_48_" d="M50.2,33.2c7.7,0,13.9,6.2,13.9,13.9S57.9,61,50.2,61s-13.9-6.2-13.9-13.9S42.6,33.2,50.2,33.2 M50.2,31.6
		c-8.5,0-15.5,6.9-15.5,15.5s6.9,15.5,15.5,15.5c8.5,0,15.5-6.9,15.5-15.5S58.8,31.6,50.2,31.6L50.2,31.6z"/>
	<radialGradient id="XMLID_62_" cx="43.614" cy="38.7635" r="30.1805" gradientUnits="userSpaceOnUse">
		<stop  offset="0" style="stop-color:#DB2727"/>
		<stop  offset="1" style="stop-color:#A81E1E"/>
	</radialGradient>
	<path id="XMLID_45_" class="st14" d="M50.2,33.2c-7.7,0-13.9,6.2-13.9,13.9S42.6,61,50.2,61s13.9-6.2,13.9-13.9
		S57.9,33.2,50.2,33.2z"/>
	<g id="Calque_3_5_" class="st1">
		<g id="XMLID_31_" class="st2">
			<circle id="XMLID_32_" class="st3" cx="50.2" cy="47.1" r="6.7"/>
		</g>
		<rect id="XMLID_41_" x="46.7" y="43.5" class="st4" width="7.1" height="7.1"/>
	</g>
	<g id="XMLID_52_" class="st1">
		<circle id="XMLID_53_" class="st5" cx="50.2" cy="47.1" r="6.7"/>
	</g>
	<text id="XMLID_30_" transform="matrix(1 0 0 1 47.2178 50.8878)" class="st11 st12 st13">X</text>
	<path id="XMLID_28_" class="st6" d="M37.3,49c0-8,6.5-14.6,14.6-14.6c2,0,3.9,0.4,5.6,1.1c-2-1.2-4.4-1.9-7-1.9
		c-7.6,0-13.7,6.1-13.7,13.7c0,1.5,0.3,3,0.7,4.4C37.4,50.9,37.3,49.9,37.3,49z"/>
</g>
</svg>
